HIERARCHY
ROOT Hips
{
	OFFSET 0.000000 0.000000 0.000000
	CHANNELS 6 Xposition Yposition Zposition Yrotation Xrotation Zrotation
	JOINT Chest
	{
		OFFSET 0.000000 -0.009281 11.569106
		CHANNELS 3 Yrotation Xrotation Zrotation
		JOINT Chest2
		{
			OFFSET -0.000000 0.016865 9.269641
			CHANNELS 3 Yrotation Xrotation Zrotation
			JOINT Chest3
			{
				OFFSET -0.000000 0.000001 8.374491
				CHANNELS 3 Yrotation Xrotation Zrotation
				JOINT Chest4
				{
					OFFSET -0.000000 0.000001 8.374493
					CHANNELS 3 Yrotation Xrotation Zrotation
					JOINT Neck
					{
						OFFSET -0.000000 0.000002 12.152554
						CHANNELS 3 Yrotation Xrotation Zrotation
						JOINT Head
						{
							OFFSET -0.000000 0.040101 7.802319
							CHANNELS 3 Yrotation Xrotation Zrotation
							End Site
							{
								OFFSET -0.000000 0.020947 14.853096
							}
						}
					}
					JOINT RightCollar
					{
						OFFSET 2.894404 0.000001 6.791374
						CHANNELS 3 Yrotation Xrotation Zrotation
						JOINT RightShoulder
						{
							OFFSET 13.574684 0.000001 0.000000
							CHANNELS 3 Yrotation Xrotation Zrotation
							JOINT RightElbow
							{
								OFFSET 23.923903 0.000002 0.000000
								CHANNELS 3 Yrotation Xrotation Zrotation
								JOINT RightWrist
								{
									OFFSET 19.846718 0.012767 0.000000
									CHANNELS 3 Yrotation Xrotation Zrotation
									End Site
									{
										OFFSET 14.973145 0.000001 0.000000
									}
								}
							}
						}
					}
					JOINT LeftCollar
					{
						OFFSET -2.894404 0.000001 6.791374
						CHANNELS 3 Yrotation Xrotation Zrotation
						JOINT LeftShoulder
						{
							OFFSET -13.574684 -0.000001 0.000000
							CHANNELS 3 Yrotation Xrotation Zrotation
							JOINT LeftElbow
							{
								OFFSET -23.923903 -0.000002 0.000000
								CHANNELS 3 Yrotation Xrotation Zrotation
								JOINT LeftWrist
								{
									OFFSET -19.846718 0.012763 0.000000
									CHANNELS 3 Yrotation Xrotation Zrotation
									End Site
									{
										OFFSET -14.973145 -0.000001 0.000000
									}
								}
							}
						}
					}
				}
			}
		}
	}
	JOINT RightHip
	{
		OFFSET 9.469263 0.004643 0.045487
		CHANNELS 3 Yrotation Xrotation Zrotation
		JOINT RightKnee
		{
			OFFSET 0.000000 0.002661 -40.478676
			CHANNELS 3 Yrotation Xrotation Zrotation
			JOINT RightAnkle
			{
				OFFSET 0.000000 0.049106 -35.224068
				CHANNELS 3 Yrotation Xrotation Zrotation
				JOINT RightToe
				{
					OFFSET -0.000001 12.539529 -6.151390
					CHANNELS 3 Yrotation Xrotation Zrotation
					End Site
					{
						OFFSET -0.000001 5.044994 -1.291870
					}
				}
			}
		}
	}
	JOINT LeftHip
	{
		OFFSET -9.469263 0.004641 0.045487
		CHANNELS 3 Yrotation Xrotation Zrotation
		JOINT LeftKnee
		{
			OFFSET 0.000000 0.002661 -40.478676
			CHANNELS 3 Yrotation Xrotation Zrotation
			JOINT LeftAnkle
			{
				OFFSET 0.000000 0.049106 -35.224068
				CHANNELS 3 Yrotation Xrotation Zrotation
				JOINT LeftToe
				{
					OFFSET -0.000001 12.539529 -6.151390
					CHANNELS 3 Yrotation Xrotation Zrotation
					End Site
					{
						OFFSET -0.000001 5.044994 -1.291870
					}
				}
			}
		}
	}
}
MOTION
Frames: 9
Frame Time: 0.016667
9.981252 7.030771 83.055290 -8.385288 -4.362997 -112.378557 -0.549267 -6.230406 2.249153 -0.179220 -2.763953 0.961660 -0.179220 -2.763953 0.961659 -0.130037 -2.073252 0.720295 7.197666 -21.775311 -18.989734 7.794052 -4.449354 -32.322870 -6.215555 -0.628378 -6.902281 52.443712 16.985951 57.095368 1.410532 -0.405043 22.983448 -41.857715 -2.210411 11.715251 -8.499559 -9.178762 -18.756659 -53.450253 -13.474466 -63.984884 -5.225564 -25.192767 -36.464123 48.830081 -15.306449 -41.597341 -0.498643 -6.678641 -1.805594 0.823269 -10.635431 -1.001468 1.066968 6.760055 3.047980 0.296894 -0.055358 -0.008903 0.491390 -10.787782 0.050459 -0.383935 -3.374986 0.224625 0.239434 4.954316 3.688306 0.005657 -0.356254 0.028684 
9.961355 7.062009 83.050957 -8.492487 -4.429659 -112.434749 -0.553412 -6.223338 2.302199 -0.181894 -2.760850 0.987475 -0.181894 -2.760850 0.987475 -0.131930 -2.070938 0.739644 7.134087 -21.659510 -18.941160 7.670424 -4.246142 -32.257587 -6.230707 -0.775859 -7.069149 52.605902 16.479964 56.526809 2.047707 -0.246983 23.278227 -41.008712 -2.474017 10.546898 -8.583895 -9.097924 -18.832064 -53.256293 -13.467941 -63.388158 -5.541578 -25.609449 -36.416526 47.972069 -16.387371 -40.490273 -0.496323 -6.702905 -1.813285 0.804429 -10.779745 -0.965271 1.028253 6.832086 3.070078 0.283166 -0.056491 -0.005372 0.484433 -10.876665 0.033339 -0.390914 -3.427659 0.309746 0.261753 5.000449 3.688538 0.004490 -0.329764 0.025590 
9.942155 7.092908 83.048714 -8.593861 -4.494912 -112.492082 -0.577550 -6.209426 2.378006 -0.192340 -2.756319 1.021461 -0.192340 -2.756319 1.021468 -0.139618 -2.067568 0.765081 7.088185 -21.533597 -18.894327 7.575866 -4.021036 -32.190917 -6.181386 -0.942930 -7.241096 52.802038 16.134664 56.031272 2.636613 -0.327087 23.525099 -39.916582 -2.974520 9.412989 -8.650427 -8.985158 -18.968803 -53.115980 -13.376927 -62.776235 -5.969021 -26.131578 -36.346462 47.027212 -17.438545 -39.343245 -0.494601 -6.730929 -1.819961 0.795115 -10.913165 -0.859604 0.978161 6.897825 3.013522 0.267870 -0.052752 -0.005302 0.477326 -10.966925 0.023632 -0.397172 -3.464473 0.357616 0.284363 5.033189 3.727636 0.005278 -0.303998 0.023233 
9.922219 7.121001 83.047798 -8.692038 -4.561264 -112.547550 -0.604882 -6.201900 2.449573 -0.204915 -2.754742 1.051902 -0.204915 -2.754742 1.051903 -0.148912 -2.066416 0.787854 7.041517 -21.388297 -18.835906 7.479157 -3.759533 -32.104481 -6.129734 -0.981952 -7.412030 52.967997 15.803782 55.470883 3.294426 -0.413705 23.783520 -38.735567 -3.717938 8.413723 -8.703840 -8.834253 -19.118840 -52.995165 -13.225959 -62.131253 -6.442992 -26.710944 -36.313080 46.119572 -18.403689 -38.232431 -0.495087 -6.755228 -1.772527 0.802317 -11.041869 -0.771148 0.923267 6.952271 2.933463 0.254127 -0.044772 -0.003535 0.476672 -11.061871 0.026872 -0.407687 -3.484795 0.397273 0.306204 5.053493 3.769109 0.006603 -0.280396 0.020410 
9.904276 7.144792 83.047974 -8.781152 -4.623430 -112.594063 -0.633469 -6.171074 2.521949 -0.218962 -2.741470 1.082932 -0.218962 -2.741469 1.082936 -0.159330 -2.056497 0.811063 6.992124 -21.239839 -18.780966 7.376217 -3.493066 -32.025569 -6.062962 -1.081597 -7.576448 53.051298 15.523760 54.888240 4.040728 -0.400673 24.108457 -37.652056 -4.375582 7.493626 -8.684351 -8.785848 -19.284138 -52.841161 -13.059963 -61.536576 -6.882060 -27.224021 -36.354204 45.207157 -19.313902 -37.139915 -0.485671 -6.784571 -1.713442 0.805040 -11.149318 -0.744716 0.873986 6.995591 2.893875 0.242508 -0.035237 -0.000818 0.478348 -11.152598 0.039783 -0.413804 -3.496204 0.450201 0.316980 5.069018 3.785895 0.010444 -0.259547 0.017550 
9.889298 7.161340 83.049484 -8.848701 -4.690863 -112.619574 -0.634055 -6.123186 2.558241 -0.227488 -2.720874 1.100869 -0.227488 -2.720875 1.100873 -0.165680 -2.041074 0.824488 6.918570 -21.078083 -18.713827 7.230859 -3.205909 -31.932582 -6.005195 -1.194993 -7.681395 52.994908 15.208403 54.268411 4.763180 -0.254688 24.500992 -36.746377 -4.701472 6.559431 -8.701695 -8.715892 -19.400700 -52.663351 -12.958754 -60.922105 -7.257169 -27.627963 -36.450715 44.186915 -20.397819 -35.905584 -0.455772 -6.812648 -1.684111 0.807052 -11.228075 -0.734255 0.825686 7.024404 2.853707 0.230883 -0.027602 0.000064 0.504341 -11.230681 0.049570 -0.416871 -3.503391 0.490769 0.312077 5.065573 3.769629 0.017091 -0.222298 0.014141 
9.878544 7.172434 83.052963 -8.910112 -4.746383 -112.630502 -0.642252 -6.063936 2.583578 -0.232593 -2.694370 1.112410 -0.232593 -2.694371 1.112412 -0.169506 -2.021210 0.833128 6.837303 -20.908572 -18.644569 7.070889 -2.905826 -31.838824 -5.966586 -1.265251 -7.824449 52.868068 14.749329 53.630123 5.415811 0.025956 24.929089 -35.911741 -4.944277 5.655598 -8.718736 -8.678052 -19.499256 -52.469158 -12.864208 -60.366646 -7.618674 -27.985872 -36.567860 43.059090 -21.652550 -34.374915 -0.430974 -6.858178 -1.664712 0.805640 -11.266285 -0.709945 0.782387 7.029436 2.823723 0.217995 -0.013303 0.002514 0.525201 -11.297016 0.063020 -0.423678 -3.514004 0.489904 0.313795 5.081190 3.797821 0.022887 -0.205787 0.011447 
9.873510 7.179703 83.057907 -8.960978 -4.803618 -112.638624 -0.648074 -5.994539 2.607391 -0.236588 -2.663373 1.123503 -0.236588 -2.663373 1.123504 -0.172511 -1.997972 0.841445 6.757273 -20.735254 -18.576678 6.912114 -2.598584 -31.747826 -5.919227 -1.355079 -7.979792 52.802785 14.336620 53.090531 6.018583 0.205631 25.286786 -35.027396 -5.227020 4.760516 -8.771336 -8.603836 -19.597720 -52.241521 -12.785160 -59.824896 -8.029511 -28.319366 -36.635472 41.790659 -22.680186 -32.602259 -0.400181 -6.917900 -1.632837 0.813025 -11.264692 -0.681386 0.741320 7.013490 2.768956 0.199941 0.001142 0.005101 0.561129 -11.361485 0.094562 -0.432201 -3.525732 0.461462 0.310522 5.104875 3.774942 0.026778 -0.192089 0.006994 
9.874236 7.177609 83.063683 -9.007424 -4.870315 -112.651451 -0.650597 -5.912537 2.640056 -0.239004 -2.626913 1.137899 -0.239004 -2.626913 1.137898 -0.174328 -1.970637 0.852249 6.685637 -20.566726 -18.515965 6.767445 -2.299035 -31.667561 -5.876399 -1.414044 -8.152104 52.821872 14.069602 52.580200 6.626440 0.072863 25.597676 -33.874586 -5.582584 3.739658 -8.824180 -8.545332 -19.707505 -52.063448 -12.667475 -59.266296 -8.455667 -28.693481 -36.710727 40.369980 -23.652455 -30.778058 -0.360573 -6.994829 -1.605836 0.825662 -11.238281 -0.664020 0.708554 6.986999 2.735904 0.176588 0.014687 0.007745 0.602048 -11.434472 0.149793 -0.433011 -3.528362 0.437771 0.303313 5.128199 3.753232 0.029515 -0.180412 0.004671 
